<?xml version="1.0" encoding="utf-8"?>
<!-- Generator: Adobe Illustrator 19.2.1, SVG Export Plug-In . SVG Version: 6.00 Build 0)  -->
<svg version="1.1" xmlns="http://www.w3.org/2000/svg" xmlns:xlink="http://www.w3.org/1999/xlink" x="0px" y="0px"
	 viewBox="0 0 652.6 178.6" style="enable-background:new 0 0 652.6 178.6;" xml:space="preserve">
<style type="text/css">
	.st0{fill:#ED1C24;}
	.st1{fill:#BA141A;}
	.st2{fill:url(#SVGID_1_);}
	.st3{fill:url(#SVGID_2_);}
</style>
<g id="Stödlinjer">
</g>
<g id="Logotype">
	<g>
		<g>
			<g>
				<g>
					<path d="M216.1,127.8h57.7c12.3,0,22.3-9.4,22.3-20.9V103c0-11.3-9.4-20.5-21.5-20.9l-0.4,0h-39c-3.4,0-6.1-2.6-6.1-5.8v-3.8
						c0-3.2,2.8-5.8,6.1-5.8h56.5V51.5h-56.5c-12.3,0-22.3,9.4-22.3,20.9v3.8c0,11.5,10,20.9,22.3,20.9h38.6c3.4,0,6.1,2.6,6.1,5.8
						v3.9c0,3.2-2.7,5.8-6.1,5.8h-57.7V127.8z"/>
				</g>
				<g>
					<g>
						<path d="M315.2,127.8h16.2V51.5h-16.1L315.2,127.8z"/>
					</g>
				</g>
				<g>
					<path d="M541.2,127.8h16.2l0-55.3c0-11.6-10-20.9-22.3-20.9h-80.5v76.3h16.1V66.7h26.9l0,61.1h16.1V66.7h21.4
						c3.4,0,6.1,2.6,6.1,5.8L541.2,127.8z"/>
				</g>
				<g>
					<path d="M652.6,72.5c0-11.5-10-20.9-22.3-20.9H579v15.2h51.3c3.4,0,6.1,2.6,6.1,5.8l0,9.5h-40.7c-12.3,0-22.3,9.4-22.3,21v3.9
						c0,11.6,10,21,22.3,21h56.8L652.6,72.5z M636.4,112.6L636.4,112.6h-40.7c-3.4,0-6.1-2.6-6.1-5.8V103c0-3.2,2.8-5.8,6.1-5.8
						h40.7L636.4,112.6z"/>
				</g>
				<g>
					<path d="M353.2,106.9c0,11.5,10,20.9,22.3,20.9h56.9V82.1h-42.5v15.2h26.3v15.4h-40.6c-3.4,0-6.1-2.6-6.1-5.8l0-34.4
						c0-3.2,2.8-5.8,6.1-5.8h56.7V51.5h-56.7c-12.3,0-22.3,9.4-22.3,21L353.2,106.9z"/>
				</g>
			</g>
		</g>
		<g>
			<path class="st0" d="M89.3,60.9c9.4,0,18.5,0.5,27.1,1.3C112.7,26.1,102,0,89.3,0C76.6,0,65.9,26.1,62.2,62.2
				C70.7,61.3,79.8,60.9,89.3,60.9z"/>
			<path class="st0" d="M89.3,117.7c-9.4,0-18.5-0.5-27.1-1.3c3.7,36.1,14.4,62.2,27.1,62.2c12.7,0,23.4-26.1,27.1-62.2
				C107.8,117.2,98.7,117.7,89.3,117.7z"/>
			<path class="st0" d="M60.9,89.3c0-9.4,0.5-18.5,1.3-27.1C26.1,65.8,0,76.6,0,89.3c0,12.7,26.1,23.4,62.2,27.1
				C61.3,107.8,60.9,98.7,60.9,89.3z"/>
			<path class="st1" d="M62.2,62.2c-0.9,8.5-1.3,17.6-1.3,27.1c0,9.4,0.5,18.5,1.3,27.1l54.2-54.2c-8.5-0.9-17.6-1.3-27.1-1.3
				C79.8,60.9,70.7,61.3,62.2,62.2z"/>
			<g>
				<linearGradient id="SVGID_1_" gradientUnits="userSpaceOnUse" x1="122.6811" y1="58.5601" x2="153.137" y2="111.3112">
					<stop  offset="0" style="stop-color:#595959"/>
					<stop  offset="0.2562" style="stop-color:#3B3B3B"/>
					<stop  offset="0.5459" style="stop-color:#202020"/>
					<stop  offset="0.8033" style="stop-color:#101010"/>
					<stop  offset="1" style="stop-color:#0A0A0A"/>
				</linearGradient>
				<path class="st2" d="M116.4,62.2c0.9,8.5,1.3,17.6,1.3,27.1c0,9.4-0.5,18.5-1.3,27.1c36.1-3.7,62.2-14.4,62.2-27.1
					C178.6,76.6,152.5,65.8,116.4,62.2L116.4,62.2z"/>
			</g>
			<linearGradient id="SVGID_2_" gradientUnits="userSpaceOnUse" x1="84.337" y1="80.7" x2="107.8026" y2="121.3436">
				<stop  offset="0" style="stop-color:#9E0B0F"/>
				<stop  offset="0.241" style="stop-color:#8A0204"/>
				<stop  offset="0.5366" style="stop-color:#770000"/>
				<stop  offset="0.7992" style="stop-color:#6C0000"/>
				<stop  offset="1" style="stop-color:#670000"/>
			</linearGradient>
			<path class="st3" d="M62.2,116.4c8.5,0.9,17.6,1.3,27.1,1.3c9.4,0,18.5-0.5,27.1-1.3c0.9-8.5,1.3-17.6,1.3-27.1
				c0-9.4-0.5-18.5-1.3-27.1L62.2,116.4z"/>
		</g>
	</g>
</g>
</svg>
